<svg xmlns="http://www.w3.org/2000/svg"><symbol id="ALARM" viewBox="0 0 32 30.5">
  <path fill-rule="evenodd" d="M420.74,1236.5a15.727,15.727,0,0,0-8.243-8.24A5.868,5.868,0,0,1,420.74,1236.5Zm-0.24,6.5a14.442,14.442,0,0,1-3.963,9.94l2.029,2.03a1.482,1.482,0,0,1-1.049,2.53,1.51,1.51,0,0,1-1.049-.43l-2.178-2.18a14.471,14.471,0,0,1-16.566.01l-2.163,2.16a1.5,1.5,0,1,1-2.122-2.12l2.012-2.01A14.495,14.495,0,1,1,420.5,1243ZM406,1231.5a11.5,11.5,0,1,0,11.5,11.5A11.5,11.5,0,0,0,406,1231.5Zm6,13h-6a1.5,1.5,0,0,1-1.5-1.5v-8a1.5,1.5,0,0,1,3,0v6.5H412A1.5,1.5,0,0,1,412,1244.5Zm-20.713-7.79A6,6,0,0,1,396,1227a5.935,5.935,0,0,1,3.706,1.29A16.016,16.016,0,0,0,391.287,1236.71Z" transform="translate(-390 -1227)"/>
</symbol><symbol id="BOOK2" viewBox="0 0 32 32">
  <path fill-rule="evenodd" d="M422.065,1421.89l-14.471,5.99a1.53,1.53,0,0,1-1.188,0l-14.471-5.99a1.5,1.5,0,0,1-.935-1.39v-23a1.5,1.5,0,0,1,1.5-1.5,1.55,1.55,0,0,1,.573.11h0a0.012,0.012,0,0,0,.013.01L407,1401.88l13.911-5.76a0.012,0.012,0,0,0,.013-0.01h0a1.55,1.55,0,0,1,.573-0.11,1.5,1.5,0,0,1,1.5,1.5v23A1.5,1.5,0,0,1,422.065,1421.89ZM405.5,1404.5l-11.5-4.76v19.76l11.5,4.76V1404.5Zm14.5-4.76-11.5,4.76v19.76l11.5-4.76v-19.76Zm-9.121,6.89,5.5-2.5h0A1.593,1.593,0,0,1,417,1404a1.5,1.5,0,0,1,.621,2.87h0l-5.5,2.5h0a1.6,1.6,0,0,1-.621.13A1.5,1.5,0,0,1,410.879,1406.63Zm0,5.5h0l5.5-2.5h0a1.593,1.593,0,0,1,.621-0.13,1.5,1.5,0,0,1,.621,2.87l-5.5,2.5v-0.01a1.445,1.445,0,0,1-.621.14A1.5,1.5,0,0,1,410.879,1412.13Zm0,5.5h0l5.5-2.5h0A1.593,1.593,0,0,1,417,1415a1.5,1.5,0,0,1,.621,2.87h0l-5.5,2.5h0a1.6,1.6,0,0,1-.621.13A1.5,1.5,0,0,1,410.879,1417.63ZM397,1404a1.6,1.6,0,0,1,.621.13h0l5.5,2.5h0a1.5,1.5,0,0,1-.621,2.87,1.593,1.593,0,0,1-.621-0.13h0l-5.5-2.5h0A1.5,1.5,0,0,1,397,1404Zm0,5.5a1.6,1.6,0,0,1,.621.13h0l5.5,2.5h0a1.5,1.5,0,0,1-.621,2.87,1.439,1.439,0,0,1-.621-0.14v0.01l-5.5-2.5h0A1.5,1.5,0,0,1,397,1409.5Zm0,5.5a1.6,1.6,0,0,1,.621.13h0l5.5,2.5h0a1.5,1.5,0,0,1-.621,2.87,1.593,1.593,0,0,1-.621-0.13h0l-5.5-2.5h0A1.5,1.5,0,0,1,397,1415Z" transform="translate(-391 -1396)"/>
</symbol><symbol id="COMPUTEROK" viewBox="0 0 31 28">
  <path fill-rule="evenodd" d="M1220,1250h-9.5v2.5l2,2v0.5h-13v-0.5l2-2V1250H1192a1.5,1.5,0,0,1-1.5-1.5v-20a1.5,1.5,0,0,1,1.5-1.5h28a1.5,1.5,0,0,1,1.5,1.5v20A1.5,1.5,0,0,1,1220,1250Zm-0.5-21h-27v17h27v-17Zm-16.5,7a1.505,1.505,0,0,1,1.06.44h0l0.94,0.94,2.94-2.94h0a1.5,1.5,0,1,1,2.12,2.12h0l-4,4h0a1.5,1.5,0,0,1-2.12,0h0l-2-2h0A1.5,1.5,0,0,1,1203,1236Z" transform="translate(-1190.5 -1227)"/>
</symbol><symbol id="HOME" viewBox="0 0 32 30.5">
  <path fill-rule="evenodd" d="M822,1412.5a1.493,1.493,0,0,1-2.52,1.09l0,0.01-13.439-13.44h0l-0.038-.04h0l-13.446,13.45h0a1.525,1.525,0,0,1-1.053.43,1.5,1.5,0,0,1-1.5-1.5,1.479,1.479,0,0,1,.461-1.08l14.458-14.46a1.51,1.51,0,0,1,1.081-.46h0.092c0.023,0,.045.01,0.068,0.01h0a1.479,1.479,0,0,1,.933.47h0l5.9,5.9v-1.38a1.5,1.5,0,0,1,3,0v4.38l5.6,5.6h0A1.485,1.485,0,0,1,822,1412.5Zm-3,2.5v10.5a1.5,1.5,0,0,1-1.5,1.5h-3v-12h-6v12h-14a1.5,1.5,0,0,1-1.5-1.5V1415l13-13Zm-15.5,0h-6v6h6v-6Z" transform="translate(-790 -1396.5)"/>
</symbol><symbol id="IMAGE" viewBox="0 0 32 32">
  <path fill-rule="evenodd" d="M1220.5,1428h-29a1.5,1.5,0,0,1-1.5-1.5v-29a1.5,1.5,0,0,1,1.5-1.5h29a1.5,1.5,0,0,1,1.5,1.5v29A1.5,1.5,0,0,1,1220.5,1428Zm-1.5-29h-26v26h26v-26Zm-22.5,1.5h5.5a1.5,1.5,0,0,1,0,3h-4.5v4.5h0a1.5,1.5,0,0,1-3,0h0v-5.5h0v-2h2Zm-2,15.5h0a1.5,1.5,0,0,1,3,0h0v4.5h4.5a1.5,1.5,0,0,1,0,3h-7.5v-2h0V1416Zm15.5-15.5h7.5v2h0v5.5h0a1.5,1.5,0,0,1-3,0h0v-4.5H1210A1.5,1.5,0,0,1,1210,1400.5Zm0,20h4.5V1416h0a1.5,1.5,0,0,1,3,0h0v5.5h0v2H1210A1.5,1.5,0,0,1,1210,1420.5Z" transform="translate(-1190 -1396)"/>
</symbol><symbol id="LINEGRAPH" viewBox="0 0 32 32">
  <path fill-rule="evenodd" d="M821.5,1258h-29a1.5,1.5,0,0,1-1.5-1.5v-29a1.5,1.5,0,0,1,1.5-1.5h29a1.5,1.5,0,0,1,1.5,1.5v29A1.5,1.5,0,0,1,821.5,1258Zm-1.5-29H794v26h26v-26Zm-23.785,13.24h0l4-2.5h0a1.524,1.524,0,0,1,1.625.03h0.006l6.631,4.42,7.638-5.4a1.5,1.5,0,1,1,1.763,2.43h0l-8.5,6h0a1.486,1.486,0,0,1-.878.29,1.505,1.505,0,0,1-.861-0.28l-6.657-4.43-3.135,1.95a1.465,1.465,0,0,1-.847.27A1.5,1.5,0,0,1,796.215,1242.24Z" transform="translate(-791 -1226)"/>
</symbol><symbol id="user_MAGNIFYINGGLASS" viewBox="0 0 18 18">
<path fill-rule="evenodd" d="M17.317,14.983 C17.615,15.281 17.800,15.694 17.800,16.150 C17.800,17.061 17.061,17.800 16.150,17.800 C15.694,17.800 15.282,17.615 14.983,17.316 L14.983,17.316 L10.147,12.481 C9.165,13.061 8.023,13.400 6.800,13.400 C3.155,13.400 0.200,10.445 0.200,6.800 C0.200,3.155 3.155,0.200 6.800,0.200 C10.445,0.200 13.400,3.155 13.400,6.800 C13.400,8.023 13.061,9.165 12.481,10.147 L17.317,14.983 L17.317,14.983 ZM6.800,1.849 C4.066,1.849 1.850,4.066 1.850,6.800 C1.850,9.534 4.066,11.750 6.800,11.750 C9.534,11.750 11.750,9.534 11.750,6.800 C11.750,4.066 9.534,1.849 6.800,1.849 Z"/>
</symbol><symbol id="user_SHOPPINGCART" viewBox="0 0 18 15">
<path fill-rule="evenodd" d="M17.726,3.663 L17.727,3.663 L15.252,9.163 L15.252,9.163 C15.130,9.434 14.866,9.627 14.555,9.648 L14.555,9.648 L7.427,10.123 L7.839,11.299 L15.600,11.299 C16.511,11.299 17.250,12.038 17.250,12.950 C17.250,13.861 16.511,14.600 15.600,14.600 C14.689,14.600 13.950,13.861 13.950,12.950 L6.250,12.950 C6.250,13.861 5.511,14.600 4.600,14.600 C3.689,14.600 2.950,13.861 2.950,12.950 C2.950,12.038 3.689,11.299 4.600,11.299 L6.091,11.299 L2.915,2.225 L1.025,2.225 C0.569,2.225 0.200,1.855 0.200,1.400 C0.200,0.944 0.569,0.575 1.025,0.575 L3.500,0.575 C3.860,0.575 4.163,0.807 4.276,1.128 L4.279,1.127 L4.759,2.500 L16.975,2.500 C17.431,2.500 17.800,2.869 17.800,3.325 C17.800,3.445 17.773,3.559 17.726,3.663 ZM5.337,4.150 L6.862,8.507 L13.951,8.034 L15.699,4.150 L5.337,4.150 Z"/>
</symbol></svg>